<svg class="svg-icon"  viewBox="0 0 1024 1024" version="1.1" xmlns="http://www.w3.org/2000/svg"><path d="M500.999036 943.996939h-287.999067c-44.111857 0-79.999741-35.887884-79.99974-79.99974V159.999481c0-44.111857 35.887884-79.999741 79.99974-79.99974h491.778406c44.111857 0 79.999741 35.887884 79.999741 79.99974v377.998775c0 22.091928 17.907942 39.99987 39.99987 39.99987s39.99987-17.907942 39.99987-39.99987V159.999481c0-88.223714-71.775767-159.999481-159.999481-159.999481H212.999969c-88.223714 0-159.999481 71.775767-159.999481 159.999481v703.997718c0 88.223714 71.775767 159.999481 159.999481 159.999481h287.999067c22.091928 0 39.99987-17.907942 39.99987-39.99987s-17.905942-39.99987-39.99987-39.999871z"  /><path d="M664.998504 337.998904h-251.999183c-22.091928 0-39.99987 17.907942-39.99987 39.99987s17.907942 39.99987 39.99987 39.999871h251.999183c22.091928 0 39.99987-17.907942 39.99987-39.999871s-17.905942-39.99987-39.99987-39.99987zM412.999321 657.997867c-22.091928 0-39.99987 17.907942-39.99987 39.99987s17.907942 39.99987 39.99987 39.99987h60.055805c22.091928 0 39.99987-17.907942 39.999871-39.99987s-17.907942-39.99987-39.999871-39.99987H412.999321zM664.998504 177.999423h-251.999183c-22.091928 0-39.99987 17.907942-39.99987 39.99987s17.907942 39.99987 39.99987 39.999871h251.999183c22.091928 0 39.99987-17.907942 39.99987-39.999871s-17.905942-39.99987-39.99987-39.99987zM704.998374 537.998256c0-22.091928-17.907942-39.99987-39.99987-39.999871h-251.999183c-22.091928 0-39.99987 17.907942-39.99987 39.999871s17.907942 39.99987 39.99987 39.99987h251.999183c22.093928 0 39.99987-17.907942 39.99987-39.99987z"  /><path d="M256.999827 537.998256m-39.999871 0a39.99987 39.99987 0 1 0 79.999741 0 39.99987 39.99987 0 1 0-79.999741 0Z"  /><path d="M934.273631 694.327749C911.131706 670.899825 879.433809 657.997867 845.01792 657.997867c-34.245889 0-63.821793 10.889965-85.983721 31.201898C736.878271 668.887831 707.300367 657.997867 673.056478 657.997867c-34.413888 0-66.109786 12.901958-89.255711 36.331882-23.683923 23.973922-36.725881 57.683813-36.725881 94.915692 0 78.459746 66.649784 128.151585 120.199611 168.077455 24.355921 18.157941 47.359846 35.309886 60.605803 51.761832a39.99987 39.99987 0 0 0 62.311798 0c13.245957-16.451947 36.249882-33.603891 60.605804-51.761832 53.553826-39.927871 120.20161-89.619709 120.20161-168.079455-0.002-37.231879-13.043958-70.94177-36.725881-94.915692z m-131.295574 198.857355c-14.887952 11.099964-30.051903 22.405927-43.943858 34.343889-13.893955-11.937961-29.055906-23.243925-43.943857-34.343889-43.27186-32.261895-88.017715-65.623787-88.017715-103.941663 0-31.609898 17.617943-51.245834 45.979851-51.245834 23.675923 0 32.887893 9.743968 37.759877 17.073945 6.449979 9.701969 8.115974 20.485934 8.357973 22.291928 1.191996 21.163931 18.63194 37.745878 39.863871 37.745877 21.231931 0 38.671875-16.579946 39.863871-37.743877 0.239999-1.801994 1.907994-12.589959 8.357973-22.293928 4.871984-7.329976 14.085954-17.073945 37.761877-17.073945 28.359908 0 45.979851 19.635936 45.979851 51.245834 0 38.319876-44.743855 71.679768-88.019714 103.941663z"  /><path d="M256.999827 217.999293m-39.999871 0a39.99987 39.99987 0 1 0 79.999741 0 39.99987 39.99987 0 1 0-79.999741 0Z"  /><path d="M256.999827 377.998774m-39.999871 0a39.99987 39.99987 0 1 0 79.999741 0 39.99987 39.99987 0 1 0-79.999741 0Z"  /><path d="M256.999827 697.997737m-39.999871 0a39.99987 39.99987 0 1 0 79.999741 0 39.99987 39.99987 0 1 0-79.999741 0Z"  /></svg>